# xmcd
#
# Track frame offsets:
# 150
# 15454
# 27468
# 42437
# 59116
# 71786
# 87814
# 102885
# 120581
# 133544
# 151690
# 164092
# 180913
# 198303
# 214388
# 234388
# 251451
#
# Disc length: 3575 seconds
#
#
# Revision: 1
# Processed by: cddbd v1.4PL0 Copyright (c) Steve Scherf et al.
# Submitted via: FreeRIP 2.11 
#
DISCID=e80df511
DTITLE=Shania Twain - The Complete Limelight Sessions (1988)
DYEAR=2001
DGENRE=Crossover
TTITLE0=It's Alright
TTITLE1=Love
TTITLE2=All Fired Up, No Place To Go
TTITLE3=The Heart Is Blind
TTITLE4=For The Love Of Him
TTITLE5=Wild And Wicked
TTITLE6=I Ain't Gonna Eat Out My Heart Anymore
TTITLE7=Send It With Love
TTITLE8=Half Breed
TTITLE9=Hate To Love
TTITLE10=Bite My Lip
TTITLE11=Two Hearts One Love
TTITLE12=Rhythm Made Me Do It
TTITLE13=Luv Eyes
TTITLE14=Lost My Heart
TTITLE15=Don't Give Me That
TTITLE16=It's Alright (Edited Club Mix)
EXTD=Recordings from 1988.
EXTT0=
EXTT1=
EXTT2=
EXTT3=
EXTT4=
EXTT5=
EXTT6=
EXTT7=
EXTT8=
EXTT9=
EXTT10=
EXTT11=
EXTT12=
EXTT13=
EXTT14=
EXTT15=
EXTT16=
PLAYORDER=
